<svg version="1.1" id="Layer_1" xmlns="http://www.w3.org/2000/svg" xmlns:xlink="http://www.w3.org/1999/xlink" x="0px" y="0px"
	 width="100%" viewBox="0 0 496 496" enable-background="new 0 0 496 496" xml:space="preserve">
<path fill="#000000" opacity="1.000000" stroke="none" 
	d="
M183.295471,178.372681 
	C183.300354,189.633911 183.328888,200.450684 183.277924,211.267075 
	C183.267471,213.484406 183.848785,216.182678 180.166763,216.295868 
	C176.163971,216.418900 176.696426,213.565262 176.689529,211.135452 
	C176.656433,199.486832 176.682571,187.838058 176.666946,176.189377 
	C176.664490,174.361053 176.688065,172.517212 176.474258,170.707169 
	C175.205322,159.964508 173.341064,158.171402 162.507721,156.999908 
	C160.269867,156.757935 157.505630,157.188324 157.429382,153.690414 
	C157.384949,151.651566 157.934601,150.110641 160.542542,150.277786 
	C172.840012,151.065872 185.145752,150.941696 197.447342,150.380737 
	C199.597412,150.282669 200.819061,151.048981 201.581528,153.090439 
	C208.965988,172.861740 216.410904,192.610474 223.833832,212.367432 
	C224.244919,213.461533 224.595856,214.571899 223.623291,216.304398 
	C217.192230,216.304398 210.417313,216.304810 203.642395,216.304169 
	C201.022110,216.303909 200.493576,214.191299 199.776703,212.366852 
	C195.337189,201.068192 190.939697,189.753036 186.518646,178.447113 
	C185.798309,176.604996 185.030289,174.781525 183.291016,172.973846 
	C183.291016,174.625259 183.291016,176.276672 183.295471,178.372681 
z"/>
<path fill="#000000" opacity="1.000000" stroke="none" 
	d="
M287.348816,210.286041 
	C284.713562,216.969879 284.613556,217.030396 278.706024,215.282043 
	C281.916168,206.554886 285.119080,197.860306 288.312561,189.162277 
	C292.264893,178.397491 296.340668,167.675293 300.092377,156.840958 
	C301.586884,152.525040 303.640381,150.421173 308.667572,150.636078 
	C318.800323,151.069275 328.965851,150.708176 339.117554,150.749634 
	C341.344879,150.758743 344.176941,150.226730 344.179932,153.851303 
	C344.182587,157.093521 341.481232,156.863174 339.470032,156.978714 
	C327.080994,157.690460 326.061401,161.887817 325.490204,173.191635 
	C324.877838,185.310165 325.348999,197.482941 325.327118,209.632019 
	C325.315002,216.345520 325.296326,216.349899 318.374054,216.364319 
	C314.546295,216.372299 310.710754,216.211426 306.892975,216.406006 
	C303.484955,216.579697 302.005798,215.239594 302.053497,211.821808 
	C302.157928,204.344574 302.136932,196.865524 302.153931,189.387192 
	C302.165985,184.089645 302.156281,178.792084 301.363098,173.178528 
	C296.727051,185.421585 292.091034,197.664642 287.348816,210.286041 
z"/>
<path fill="#000000" opacity="1.000000" stroke="none" 
	d="
M325.519501,300.366943 
	C327.954987,311.675873 328.378906,312.072937 339.863373,313.824249 
	C342.015533,314.152405 344.471649,314.098450 344.191803,317.315216 
	C343.915924,320.486145 341.380585,320.157898 339.288269,320.162720 
	C322.142822,320.202240 304.997253,320.182770 287.851715,320.173401 
	C285.789917,320.172272 283.696625,320.159698 283.517090,317.305786 
	C283.316528,314.117645 285.550995,314.117645 287.815186,313.875580 
	C299.395844,312.637482 301.837402,310.087891 302.050568,298.439423 
	C302.233276,288.454926 302.068298,278.464569 302.128204,268.477203 
	C302.165253,262.302185 302.604401,261.912781 308.594635,261.888275 
	C312.090302,261.873962 315.604706,262.100250 319.077148,261.812866 
	C323.762054,261.425171 325.574097,263.043091 325.438721,267.975464 
	C325.146606,278.619171 325.409241,289.278107 325.519501,300.366943 
z"/>
<path fill="#000000" opacity="1.000000" stroke="none" 
	d="
M240.340240,262.023071 
	C242.734863,262.508942 243.156784,264.165131 243.758347,265.725739 
	C246.317505,272.364807 248.911850,278.990326 251.783737,286.366638 
	C255.220093,280.785187 256.259918,275.044647 258.568176,269.853241 
	C259.241577,268.338684 259.753448,266.749908 260.296478,265.180328 
	C261.196869,262.577759 262.985718,261.136322 265.629700,262.218048 
	C268.573120,263.422302 266.619110,265.655701 266.012543,267.289703 
	C259.943054,283.639648 253.774811,299.952911 247.638931,316.278229 
	C246.989609,318.005829 246.446487,319.919006 244.144165,319.945099 
	C241.954391,319.969910 241.022720,318.334717 240.330536,316.555878 
	C233.887573,299.998260 227.437988,283.443237 221.028076,266.872833 
	C220.565933,265.678101 220.400070,264.368774 219.935394,262.446411 
	C226.797974,261.326080 233.378052,262.073425 240.340240,262.023071 
z"/>
<path fill="#000000" opacity="1.000000" stroke="none" 
	d="
M161.178375,313.899536 
	C173.050369,312.257446 176.322617,308.456909 176.610229,295.691010 
	C176.819901,286.384094 176.615768,277.068451 176.700439,267.757660 
	C176.722931,265.284943 175.799011,261.891571 180.102615,262.010895 
	C184.382721,262.129547 183.256683,265.565582 183.281693,267.984314 
	C183.381393,277.627350 183.283066,287.272247 183.329453,296.916077 
	C183.382767,308.000458 187.183090,312.262482 198.124817,313.656006 
	C199.114288,313.782013 200.108063,313.874634 201.100082,313.980408 
	C202.972839,314.180115 204.283386,314.927612 204.155640,317.093140 
	C204.033646,319.161499 202.732407,320.042999 200.869141,320.095245 
	C197.213867,320.197815 193.555023,320.195526 189.897644,320.197144 
	C180.419952,320.201324 170.942261,320.190338 161.464600,320.170166 
	C159.501572,320.166016 157.729584,319.766541 157.496750,317.357941 
	C157.269684,315.009064 158.617615,314.060883 161.178375,313.899536 
z"/>
<path fill="#000000" opacity="1.000000" stroke="none" 
	d="
M185.714203,232.662018 
	C186.404877,230.767670 186.688416,228.869095 188.902542,228.973846 
	C191.128250,229.079163 191.356247,230.984238 191.614273,232.582535 
	C192.248642,236.511780 192.764359,240.461395 193.256775,244.411652 
	C193.416595,245.693741 193.740707,247.338516 191.880020,247.603958 
	C189.987671,247.873917 189.293152,246.393341 189.035095,244.823746 
	C188.743698,243.051514 188.610382,241.253281 187.501511,239.160629 
	C186.815659,240.862366 186.076675,242.545105 185.459625,244.271423 
	C184.897263,245.844772 184.564072,247.699020 182.413162,247.627350 
	C180.411163,247.560623 179.883362,245.795761 179.167206,244.275696 
	C178.426620,242.703781 178.400146,240.765549 176.602478,239.251770 
	C176.200211,241.613541 175.891663,243.682938 175.480789,245.731796 
	C175.266006,246.802795 174.561554,247.587021 173.394775,247.449432 
	C172.214233,247.310211 171.688324,246.333878 171.812759,245.278961 
	C172.375488,240.509018 173.005173,235.746155 173.685501,230.991440 
	C173.868515,229.712418 174.710449,228.920975 176.095444,228.951065 
	C177.428513,228.980042 178.272873,229.814026 178.719788,230.931625 
	C179.874237,233.818481 180.921814,236.748077 182.542862,241.078583 
	C183.898163,237.524323 184.754196,235.279404 185.714203,232.662018 
z"/>
<path fill="#000000" opacity="1.000000" stroke="none" 
	d="
M275.059204,228.681427 
	C282.473114,228.987030 286.424011,232.903748 285.927307,239.017761 
	C285.418213,245.283707 280.461365,248.858078 273.536682,248.136917 
	C270.944946,247.867004 269.610565,246.799515 269.648224,244.092911 
	C269.696564,240.619003 269.917175,237.108612 269.518524,233.677261 
	C269.030426,229.476257 270.930084,228.315170 275.059204,228.681427 
M274.089996,238.501099 
	C274.615417,240.756180 272.570007,244.488663 276.836884,244.648026 
	C280.609985,244.788971 281.099426,241.444046 281.160919,238.632660 
	C281.222656,235.811478 280.817352,232.548843 277.168518,232.260376 
	C273.130219,231.941116 274.426270,235.407547 274.089996,238.501099 
z"/>
<path fill="#000000" opacity="1.000000" stroke="none" 
	d="
M251.126038,231.152313 
	C253.096497,228.092789 255.179642,227.987640 256.502075,230.926498 
	C258.855988,236.157532 260.781219,241.581467 262.845367,246.822189 
	C260.086151,248.686340 259.036804,247.283173 257.864288,245.714798 
	C255.277603,242.254868 252.592560,242.140350 249.977600,245.325775 
	C249.067657,246.434219 248.481995,248.409576 246.643005,247.213074 
	C245.083298,246.198303 245.986694,244.498047 246.502197,243.126968 
	C247.962158,239.243805 249.478241,235.381714 251.126038,231.152313 
z"/>
<path fill="#000000" opacity="1.000000" stroke="none" 
	d="
M215.491577,241.394379 
	C215.999649,242.657578 216.394012,243.569275 216.767639,244.489395 
	C217.209320,245.577103 217.759521,246.760849 216.380371,247.535660 
	C215.131821,248.237076 214.060638,247.563263 213.390427,246.552856 
	C210.297150,241.889496 207.246979,241.298660 204.050140,246.444626 
	C203.472977,247.373703 202.496323,247.727524 201.457642,247.262131 
	C200.265579,246.728027 200.422424,245.638290 200.774139,244.702515 
	C202.520447,240.056290 204.103806,235.328461 206.196167,230.839890 
	C207.566788,227.899597 209.895004,228.032822 211.310699,230.914078 
	C212.910553,234.170120 214.036606,237.658981 215.491577,241.394379 
z"/>
<path fill="#000000" opacity="1.000000" stroke="none" 
	d="
M314.434631,244.222900 
	C321.134766,238.838928 316.061646,234.264435 313.332825,229.690033 
	C318.339417,227.214279 318.731842,233.171921 322.047607,233.378647 
	C324.529785,232.790604 324.763397,228.303528 329.608276,229.367508 
	C324.630127,235.312759 323.274872,241.121201 330.077942,246.165619 
	C326.688629,247.816666 326.688629,247.816666 321.385132,242.134918 
	C319.074615,242.770416 318.665283,245.269257 317.105316,246.638229 
	C316.341034,247.308975 315.519318,248.034698 314.475189,247.469452 
	C312.993591,246.667389 313.708160,245.542160 314.434631,244.222900 
z"/>
<path fill="#000000" opacity="1.000000" stroke="none" 
	d="
M304.059326,248.013672 
	C292.836487,248.307495 292.836487,248.307495 292.852814,237.906326 
	C292.867737,228.428467 295.855621,226.367203 305.231781,229.382614 
	C305.318878,229.410614 305.326538,229.685684 305.452118,230.133820 
	C304.358124,232.129471 302.266632,231.783508 300.390320,231.810165 
	C298.733551,231.833710 297.384979,232.042297 297.351776,234.136917 
	C297.321533,236.044113 298.379883,236.713425 300.119598,236.911087 
	C301.825562,237.104935 303.843292,236.386734 305.135529,238.388901 
	C304.117676,240.970367 301.798950,239.887985 300.038391,240.173813 
	C298.572723,240.411774 297.414185,240.818344 297.432373,242.530594 
	C297.450287,244.214828 298.583649,244.782196 300.063293,244.882828 
	C301.550934,244.984009 303.136658,244.765869 304.507263,245.214096 
	C306.820496,245.970642 306.569275,247.077423 304.059326,248.013672 
z"/>
<path fill="#000000" opacity="1.000000" stroke="none" 
	d="
M229.621704,236.752686 
	C230.594025,235.207077 231.402695,233.966339 232.404541,232.429214 
	C229.795364,230.963821 226.211517,233.056381 223.730911,229.488068 
	C228.590195,228.132523 233.020401,228.269363 237.261719,229.139679 
	C239.670990,229.634048 238.451370,231.743866 237.481262,233.137177 
	C235.023819,236.666565 232.524353,240.166687 230.021973,243.706451 
	C232.453796,246.365982 236.361145,243.375504 238.609161,247.034546 
	C234.133942,248.921921 229.742264,248.361343 225.462433,247.628922 
	C223.443512,247.283432 223.705490,245.460022 224.632690,244.044159 
	C226.182785,241.677078 227.843750,239.382599 229.621704,236.752686 
z"/>
</svg>